<?xml version="1.0" encoding="utf-8"?>
<!-- Generator: Adobe Illustrator 16.0.3, SVG Export Plug-In . SVG Version: 6.00 Build 0)  -->
<!DOCTYPE svg PUBLIC "-//W3C//DTD SVG 1.1//EN" "http://www.w3.org/Graphics/SVG/1.1/DTD/svg11.dtd">
<svg version="1.1" id="Layer_1" xmlns="http://www.w3.org/2000/svg" xmlns:xlink="http://www.w3.org/1999/xlink" x="0px" y="0px"
	 width="395.785px" height="267.318px" viewBox="0 0 395.785 267.318" enable-background="new 0 0 395.785 267.318"
	 xml:space="preserve">
<path fill="#FFFFFF" d="M202.232,66.77c28.289-6.831,57.491-9.801,86.582-7.937c31.909,2.044,68.209,9.702,90.543,34.539
	c26.313,28.597,19.527,67.77-9.759,92.021c2.264-0.393,11.731-2.229,16.118-2.247c0.879-0.007,2.065,0.301-0.193,3.865
	c-8.319,13.126-18.899,23.106-30.523,32.978c0.82,13.499,0.559,30.125-2.013,44.366c-0.415,2.3-2.05,1.991-3.063,1.205
	c-8.784-6.817-18.167-16.187-24.883-24.29c-18.755,10.226-36.529,17.512-56.062,23.855c-5.735,1.784-3.66-1.049-1.881-3.624
	c10.038-14.463,18.958-28.848,27.938-43.993c-3.479-2.132-7.659-4.578-10.507-6.886c-26.123,20.115-56.827,34.371-88.278,43.866
	c-43.538,13.144-86.075,15.865-119.645,9.644c-36.559-6.777-63.306-24.317-71.569-51.011
	c-10.633-34.345,13.266-67.272,37.862-88.693c3.38-10.44,12.368-30.801,17.449-41.356c-17.884-11.48-42.597-25.54-54.322-33.384
	c-9.75-6.574-7.433-7.49,5.242-9.21c24.459-2.487,48.269-2.498,71.765-0.809c7.063-12.305,15.099-24.751,23.065-36.519
	c2.175-3.102,3.111-5.127,5.882-0.108c8.483,14.371,17.23,28.821,24.351,43.937C159.111,51.609,180.489,58.87,202.232,66.77"/>
<linearGradient id="SVGID_1_" gradientUnits="userSpaceOnUse" x1="81.9541" y1="30.4971" x2="342.9541" y2="174.4971">
	<stop  offset="0" style="stop-color:#FFDD00"/>
	<stop  offset="1" style="stop-color:#F6881F"/>
</linearGradient>
<path fill="url(#SVGID_1_)" d="M327.761,175.967c-3.054,7.705-5.806,15.899-8.583,23.345c-8.683,0.513-17.309,0.705-24.801,0.854
	c-0.541,0.013-0.825,0.45-0.158,0.914c5.927,3.779,11.428,6.744,18.755,11.972c-4.48,9.045-9.823,17.124-15.04,25.733
	c-0.731,1.124-0.88,1.943,0.95,1.096c9.747-4.433,19.85-10.438,27.989-15.886c5.004,4.368,9.604,9.426,13.938,14.866
	c0.09,0.111,0.296,0.189,0.323-0.043c0.943-8.272,0.584-17.34-0.353-24.837c6.986-5.46,13.729-11.237,19.77-17.795
	c0.495-0.527,0.001-0.673-0.328-0.629c-7.156,0.87-15.691,1.906-22.703,2.444c-2.513-8.314-4.823-15.062-7.911-22.096
	c-0.345-0.729-0.624-1.095-0.905-1.095C328.416,174.812,328.125,175.194,327.761,175.967 M271.686,71.894
	c-12.118,0-23.909,0.825-34.648,2.199c-27.181,3.635-54.303,10.785-78.711,22.069c-1.419,0.693-0.786,1.631,0.368,1.422
	c117.392-20.53,219.152,0.355,183.642,88.489c-0.455,0.817,0.291,0.801,0.592,0.619c56.41-28.736,51.128-86.937-10.696-106.499
	c-18.862-5.969-40.166-8.3-60.534-8.3C271.691,71.894,271.69,71.894,271.686,71.894"/>
<radialGradient id="SVGID_2_" cx="199.6914" cy="111.9736" r="137.2079" gradientUnits="userSpaceOnUse">
	<stop  offset="0" style="stop-color:#00ACEE"/>
	<stop  offset="1" style="stop-color:#273B97"/>
</radialGradient>
<path fill="url(#SVGID_2_)" d="M164.283,169.271c-0.962-5.312-4.418-23.642,2.926-24.334c7.836-0.732,10.388,18.791,11.177,23.543
	c0.721,4.346,3.801,23.684-2.809,24.802c-0.214,0.035-0.424,0.054-0.631,0.054C168.063,193.333,165.136,173.985,164.283,169.271
	 M165.49,128.503c-0.247,0-0.499,0.003-0.749,0.008c-23.764,0.94-26.196,26.584-23.124,44.455
	c3.091,18.313,14.351,42.711,37.264,38.213c20.153-3.957,23.033-26.381,20.468-43.379c-2.869-19.066-12.461-39.295-33.854-39.297
	C165.492,128.503,165.493,128.503,165.49,128.503 M104.736,213.41c14.409,1.014,28.84,1.069,43.268,0.428
	c-1.177-6.888-2.369-13.773-3.589-20.655c-5.954,0.273-11.911,0.362-17.87,0.318c-3.916-21.311-7.553-42.672-11.37-64
	c-8.66-0.468-17.309-1.059-25.953-1.747C94.194,156.342,99.518,184.867,104.736,213.41 M192.987,127.591
	c1.065,6.302,2.109,12.607,3.125,18.918c3.14-0.45,6.278-0.913,9.415-1.371c3.002,18.566,6.095,37.118,9.32,55.646
	c6.021-1.83,12.043-3.662,18.037-5.58c-2.98-17.74-5.924-35.484-8.873-53.229c2.863-0.549,5.723-1.112,8.574-1.731l-2.896-17.438
	C217.491,124.665,205.256,126.258,192.987,127.591 M232,122.53l2.9,17.387c2.754-0.592,5.506-1.2,8.257-1.813
	c2.812,16.895,5.565,33.797,8.502,50.669c5.403-2.094,10.772-4.27,16.091-6.569c-2.784-16.101-5.381-32.231-8.132-48.338
	c2.54-0.739,5.069-1.521,7.599-2.301c-0.896-5.345-1.789-10.692-2.68-16.039C253.763,118.183,242.917,120.524,232,122.53
	 M285.667,139.614c-0.944-4.616-3.169-17.517,1.478-19.063c4.475-1.489,6.763,12.864,7.424,16.326
	c0.756,3.974,3.382,16.97-1.38,18.906c-0.257,0.104-0.508,0.153-0.752,0.153C288.315,155.937,286.16,141.757,285.667,139.614
	 M289.89,107.376c-2.401,0-5.013,0.626-7.824,2.023c-14.051,6.979-13.296,25.035-11.163,37.805
	c2.065,12.43,9.002,30.406,24.67,22.123c13.921-7.358,15.189-23.111,12.816-38.403C306.761,119.194,300.318,107.377,289.89,107.376
	L289.89,107.376"/>
<linearGradient id="SVGID_3_" gradientUnits="userSpaceOnUse" x1="37.6816" y1="110.7412" x2="298.6816" y2="254.7412">
	<stop  offset="0" style="stop-color:#FFDD00"/>
	<stop  offset="1" style="stop-color:#F6881F"/>
</linearGradient>
<path fill="url(#SVGID_3_)" d="M52.873,133.772c-28.128,24.076-42.207,51.589-34.849,75.358
	c13.281,42.899,91.353,57.371,174.341,32.318c48.622-14.681,88.161-39.676,109.899-66.486c0.407-0.502,0.105-1.102-0.584-0.537
	c-20.225,16.932-46.965,31.719-77.938,41.819c-80.23,26.165-158.514,10.986-174.813-33.894c-5.449-15.003-3.279-31.431,5.02-47.63
	c0.362-0.694,0.193-1.298-0.303-1.298C53.441,133.423,53.179,133.527,52.873,133.772 M107.896,25.436
	c-5.865,9.156-11.995,18.46-17.156,28.489c-18.185-1.689-36.707-2.184-55.539-1.574c-0.471,0.016-0.562,0.455-0.145,0.645
	c16.08,8.24,28.479,15.567,42.708,25.323c-6.135,12.578-14.377,28.722-19.203,45.711c-0.127,0.408,0.164,0.617,0.514,0.384
	c14.768-9.811,30.208-18.344,46.169-25.892c12.373,10.27,23.961,21.499,34.444,33.696c0.333,0.369,0.581,0.162,0.598-0.203
	c0.795-15.782-0.75-31.299-4.54-46.557c12.708-4.935,25.668-9.395,38.807-13.512c0.426-0.134,0.386-0.507,0.006-0.649
	c-15.61-5.209-31.533-9.302-47.75-12.347c-4.849-11.352-10.929-22.515-18.267-33.584c-0.09-0.125-0.189-0.174-0.285-0.174
	C108.11,25.192,107.975,25.304,107.896,25.436"/>
<g>
</g>
<g>
</g>
<g>
</g>
<g>
</g>
<g>
</g>
<g>
</g>
</svg>
